<svg xmlns="http://www.w3.org/2000/svg" viewBox="0 0 1025.53 263.04"><defs><style>.cls-1{fill:#fff;}</style></defs><g id="图层_2" data-name="图层 2"><g id="图层_1-2" data-name="图层 1"><g id="qM4PKE.tif"><path class="cls-1" d="M141.83.16c.79,0,1.52-.12,2.25-.12,14.82,0,29.65-.09,44.47,0,32.92.22,60.7,21.46,68.77,53.12,5.77,22.64,1.17,43.38-13.17,61.89-.81,1-1.66,2.06-2.55,3.15a74.68,74.68,0,0,1,12.86,20.56c17.41,42.32-10.37,90.76-55.59,96.78a85.27,85.27,0,0,1-11,.67c-22.4.06-44.81,0-67.21,0-.74,0-1.48-.07-2.4-.12V189.06h2.88c22.32,0,44.64,0,67,0,12,0,21.13-7.3,23.73-18.58,3.2-14-7.27-28.11-21.62-28.47-15.15-.38-30.31-.13-45.47-.16h-3V94.53h3c14.75,0,29.49.08,44.23,0a23.39,23.39,0,0,0,23-18.84c3-13.67-7.3-27.7-21.25-28.14-15.14-.48-30.31-.18-45.47-.22h-3.41Z"/><path class="cls-1" d="M790.8,91.47c11.3,0,22.21,0,33.12.09.69,0,1.69,1.09,2,1.89,5.56,14.17,11,28.38,16.52,42.58l13.5,34.91c.29.75.64,1.48,1.17,2.73,2.56-7.73,4.94-14.95,7.33-22.17q9.54-28.89,19-57.82a2.73,2.73,0,0,1,3.15-2.25c10.32.09,20.65,0,31.16,0a10,10,0,0,1-.32,1.47q-22.83,62.72-45.75,125.42c-4,10.86-9.76,20.79-18.07,29C842.7,258.28,829.31,263,814.1,263c-1.5,0-3-.06-4.49-.1a2.35,2.35,0,0,1-.59-.22v-29c2.32-.21,4.62-.36,6.91-.64,11.29-1.36,18.37-8,23-18a10.62,10.62,0,0,0,.14-9.56Q815.3,149.92,791.85,94.12C791.54,93.37,791.25,92.61,790.8,91.47Z"/><path class="cls-1" d="M23.59,94.67H117.7v47.16H70.76v94.35H23.59Z"/><path class="cls-1" d="M788.34,214c-12.19,0-23.76,0-35.32-.08-.82,0-1.83-1-2.39-1.76q-11.79-16.45-23.46-33c-.52-.73-1.09-1.43-1.79-2.36l-2,2.76q-11.64,16.23-23.26,32.5a3.94,3.94,0,0,1-3.62,2c-11.23-.1-22.46-.05-34.24-.05l44.8-62.48L664.38,91.68c.88-.09,1.49-.2,2.1-.2,10.74,0,21.49,0,32.23,0A3.53,3.53,0,0,1,702,93.18c7.71,10.85,15.47,21.67,23.42,32.78.66-.86,1.2-1.55,1.71-2.26,7.28-10.15,14.58-20.29,21.8-30.48a3.69,3.69,0,0,1,3.46-1.79c10.49.08,21,0,31.48,0h2.55l-42.82,59.78Z"/><path class="cls-1" d="M544,128.74c3.89,1.85,7.75,3.39,11.33,5.43,9.83,5.59,16.94,13.66,19.54,24.78,5.35,22.88-4.55,46.74-30.72,54.9-17.58,5.47-34.75,4.05-50.62-6-8-5-13.51-12.22-17.14-21.24L500.1,172.9a72,72,0,0,0,4.06,7.23c3.59,5,8.68,7.67,14.69,8.55,7.74,1.13,15.34.92,22-3.83,6-4.25,7.74-10.41,7-17.38a17,17,0,0,0-9.91-14.3,27.49,27.49,0,0,0-14.59-2.61c-3.28.26-5.14-.88-6.72-3.66a119.31,119.31,0,0,0-6.87-10.42c-1.18-1.66-1.26-2.77.08-4.49,8.26-10.56,16.37-21.24,24.52-31.89.55-.72,1.07-1.46,2-2.69H480.78V71.22h89.5c0,.84.11,1.72.11,2.61,0,5.59-.11,11.17.05,16.75a9.56,9.56,0,0,1-2.2,6.59c-7.72,9.83-15.29,19.76-22.91,29.66C544.84,127.47,544.39,128.14,544,128.74Z"/><path class="cls-1" d="M971.25,184.46h54.28v29.39H928.91c0-2,0-4,0-6.09,0-4.92-1-10.18.39-14.64s5.34-8.13,8.21-12.11l41.29-57.38c.52-.71,1-1.47,1.66-2.52H931.56V91.64h91.7V94c0,5.42.09,10.84-.07,16.25a7.67,7.67,0,0,1-1.35,4.07q-24.06,33.47-48.25,66.84C972.93,182.07,972.28,183,971.25,184.46Z"/><path class="cls-1" d="M379.16,71.16H464V97.85h-56.7v34H462.4v27H407.21v55h-28Z"/><path class="cls-1" d="M117.58,47.1h-2.84q-44.32,0-88.65,0a3.71,3.71,0,0,1-4-2.41c-6.89-14-13.93-28-20.91-42C.81,2,.46,1.14,0,.13H117.58Z"/><path class="cls-1" d="M600.86,181.43h31.5v31.48h-31.5Z"/></g></g></g></svg>