<?xml version="1.0" encoding="UTF-8"?>
<svg width="30px" height="30px" viewBox="0 0 30 30" version="1.1" xmlns="http://www.w3.org/2000/svg" xmlns:xlink="http://www.w3.org/1999/xlink">
    <title>增加</title>
    <g id="首页" stroke="none" stroke-width="1" fill="none" fill-rule="evenodd">
        <g transform="translate(-1090.000000, -300.000000)" fill-rule="nonzero" id="编组-32">
            <g transform="translate(320.000000, 166.000000)">
                <g id="增加" transform="translate(770.000000, 134.000000)">
                    <rect id="矩形" fill="#000000" opacity="0" x="0" y="0" width="30" height="30"></rect>
                    <path d="M15,0 C23.284125,0 30,6.71587498 30,15 C30,23.284125 23.284125,30 15,30 C6.71587502,30 0,23.284125 0,15 C0,6.71587502 6.71587502,0 15,0 Z M15,8.25000001 C14.3786797,8.25000001 13.875,8.75367966 13.875,9.375 L13.875,13.875 L9.375,13.875 C8.75367966,13.875 8.25000001,14.3786797 8.25000001,15 C8.25000001,15.6213203 8.75367966,16.125 9.375,16.125 L13.875,16.125 L13.875,20.625 C13.875,21.2463203 14.3786797,21.75 15,21.75 C15.6213203,21.75 16.125,21.2463203 16.125,20.625 L16.125,16.125 L20.625,16.125 C21.2463203,16.125 21.75,15.6213203 21.75,15 C21.75,14.3786797 21.2463203,13.875 20.625,13.875 L16.125,13.875 L16.125,9.375 C16.125,8.75367966 15.6213203,8.25000001 15,8.25000001 Z" id="形状" fill="#FFFFFF"></path>
                </g>
            </g>
        </g>
    </g>
</svg>