<?xml version="1.0" encoding="UTF-8"?>
<svg width="30px" height="31px" viewBox="0 0 30 31" version="1.1" xmlns="http://www.w3.org/2000/svg" xmlns:xlink="http://www.w3.org/1999/xlink">
    <title>等号</title>
    <g id="首页" stroke="none" stroke-width="1" fill="none" fill-rule="evenodd">
        <g transform="translate(-795.000000, -298.000000)" id="编组-32">
            <g transform="translate(320.000000, 166.000000)">
                <g id="块" transform="translate(30.000000, 75.000000)">
                    <g id="等号" transform="translate(445.000000, 57.500000)">
                        <circle id="椭圆形" fill="#3CA2FF" cx="15" cy="15" r="15"></circle>
                        <path d="M7.70774924,17.5135696 C7.70774924,16.938264 8.17539531,16.4706179 8.75070091,16.4706179 L21.2492991,16.4706179 C21.8246047,16.4706179 22.2922508,16.938264 22.2922508,17.5135696 C22.2922508,18.0888752 21.8246047,18.5565213 21.2492991,18.5565213 L8.75070091,18.5565213 C8.17539531,18.5531569 7.70774924,18.0888752 7.70774924,17.5135696 Z" id="路径" fill="#FFFFFF" fill-rule="nonzero"></path>
                        <path d="M7.70774924,13.3451273 C7.70774924,12.7698217 8.17539531,12.3021756 8.75070091,12.3021756 L21.2492991,12.3021756 C21.8246047,12.3021756 22.2922508,12.7698217 22.2922508,13.3451273 C22.2922508,13.9204329 21.8246047,14.388079 21.2492991,14.388079 L8.75070091,14.388079 C8.17539531,14.388079 7.70774924,13.9204329 7.70774924,13.3451273 Z" id="路径" fill="#FFFFFF" fill-rule="nonzero"></path>
                    </g>
                </g>
            </g>
        </g>
    </g>
</svg>