<?xml version="1.0" encoding="UTF-8"?>
<svg width="24px" height="24px" viewBox="0 0 24 24" version="1.1" xmlns="http://www.w3.org/2000/svg" xmlns:xlink="http://www.w3.org/1999/xlink">
    <title>数据走势</title>
    <defs>
        <circle id="path-1" cx="12" cy="12" r="12"></circle>
    </defs>
    <g id="首页" stroke="none" stroke-width="1" fill="none" fill-rule="evenodd">
        <g transform="translate(-350.000000, -1033.000000)" id="编组-32">
            <g transform="translate(320.000000, 166.000000)">
                <g id="编组-31" transform="translate(0.000000, 291.000000)">
                    <g id="每日全网算力走势图" transform="translate(0.000000, 551.000000)">
                        <g id="数据走势" transform="translate(30.000000, 25.000000)">
                            <mask id="mask-2" fill="white">
                                <use xlink:href="#path-1"></use>
                            </mask>
                            <use id="蒙版" fill="#B7BCC6" xlink:href="#path-1"></use>
                            <g mask="url(#mask-2)" fill="#FFFFFF" fill-rule="nonzero">
                                <g transform="translate(6.000000, 6.000000)">
                                    <rect id="矩形" opacity="0" x="0" y="0" width="12" height="12"></rect>
                                    <path d="M11.6719869,11.2421767 L11.1441498,11.2421767 L11.1441498,4.15407817 C11.1437351,3.96684681 10.9920573,3.81516899 10.8048259,3.8147543 L8.91215282,3.8147543 C8.72474943,3.8147543 8.57282896,3.96667477 8.57282896,4.15407817 L8.57282896,11.2421767 L7.3535252,11.2421767 L7.3535252,6.35063466 C7.35311051,6.1634033 7.20143269,6.01172548 7.01420133,6.0113108 L5.12228227,6.0113108 C4.93505091,6.01172548 4.78337309,6.1634033 4.7829584,6.35063466 L4.7829584,11.2421767 L3.57044112,11.2421767 L3.57044112,8.81714214 C3.57002643,8.62991078 3.41834861,8.47823296 3.23111726,8.47781827 L1.33919819,8.47781827 C1.15314579,8.47988063 1.00329166,8.63107874 1.00289054,8.81714214 L1.00289054,11.245947 L0.377026518,11.245947 C0.168800522,11.245947 0,11.4147475 0,11.6229735 C0,11.8311995 0.168800522,12 0.377026518,12 L11.6719869,12 C11.8802129,12 12.0490134,11.8311995 12.0490134,11.6229735 C12.0490134,11.4147475 11.8802129,11.245947 11.6719869,11.245947 L11.6719869,11.2421767 Z M0.898077165,6.17117028 C1.00810062,6.17128959 1.11364589,6.12760633 1.1914038,6.0497675 L4.59595325,2.64521805 L6.10405932,4.15332412 C6.18184171,4.23114303 6.2873592,4.27486432 6.39738595,4.27486432 C6.5074127,4.27486432 6.61293018,4.23114303 6.69071258,4.15332412 L9.40831972,1.4274224 L9.40831972,2.23425914 C9.40831972,2.46330774 9.59400029,2.64898831 9.82304889,2.64898831 C10.0520975,2.64898831 10.2377781,2.46330774 10.2377781,2.23425914 L10.2377781,0.414729169 C10.2377781,0.185680574 10.0520975,0 9.82304889,0 L8.00125676,0 C7.77220816,0 7.58652759,0.185680574 7.58652759,0.414729169 C7.58652759,0.643777765 7.77220816,0.829458339 8.00125676,0.829458339 L8.83523941,0.829458339 L6.39436974,3.27032801 L4.88626367,1.76222194 C4.72411418,1.60058384 4.46175989,1.60058384 4.29961041,1.76222194 L0.604750534,5.45708181 C0.486080719,5.57569592 0.450571302,5.754127 0.514787403,5.90913707 C0.579003504,6.06414715 0.730292101,6.16519332 0.898077165,6.16513761 L0.898077165,6.17117028 Z" id="形状"></path>
                                </g>
                            </g>
                        </g>
                    </g>
                </g>
            </g>
        </g>
    </g>
</svg>