<?xml version="1.0" encoding="UTF-8"?>
<svg width="24px" height="24px" viewBox="0 0 24 24" version="1.1" xmlns="http://www.w3.org/2000/svg" xmlns:xlink="http://www.w3.org/1999/xlink">
    <title>行情</title>
    <defs>
        <circle id="path-1" cx="12" cy="12" r="12"></circle>
    </defs>
    <g id="首页" stroke="none" stroke-width="1" fill="none" fill-rule="evenodd">
        <g transform="translate(-350.000000, -1459.000000)" id="编组-32">
            <g transform="translate(320.000000, 166.000000)">
                <g id="编组-31" transform="translate(0.000000, 291.000000)">
                    <g id="FIL-行情" transform="translate(0.000000, 974.000000)">
                        <g id="行情" transform="translate(30.000000, 28.000000)">
                            <mask id="mask-2" fill="white">
                                <use xlink:href="#path-1"></use>
                            </mask>
                            <use id="蒙版" fill="#B7BCC6" xlink:href="#path-1"></use>
                            <g mask="url(#mask-2)" fill="#FFFFFF" fill-rule="nonzero">
                                <g transform="translate(6.000000, 6.000000)">
                                    <rect id="矩形" opacity="0" x="0" y="0" width="12" height="12"></rect>
                                    <path d="M11.5204567,11.5326444 L0.696479548,11.5326444 C0.422454816,11.5326444 0.216936253,11.2928728 0.216936253,11.0531011 L0.216936253,7.97032282 C0.216936253,7.45652644 0.4567079,7.21675479 0.730732647,7.45652643 L2.20361562,8.62113157 C2.40913417,8.79239703 2.68315891,9.03216868 2.85442436,8.82665012 L4.53282588,6.80571768 C4.70409135,6.60019913 4.97811608,6.32617439 5.18363464,6.49743985 L6.62226451,7.76480426 C6.82778306,7.93606972 7.23882017,8.21009445 7.37583254,8.00457591 L10.9724072,3.68868628 C11.4519505,3.1406368 12,3.27764916 12,3.92845792 L12,11.0531011 C12,11.2928728 11.7602284,11.5326444 11.5204567,11.5326444 L11.5204567,11.5326444 Z M7.30732636,6.2234151 C7.17031399,6.39468057 6.96479543,6.49743984 6.75927688,6.53169294 C6.55375833,6.56594603 6.31398668,6.49743984 6.17697432,6.36042747 L4.53282588,4.99030378 L2.88867746,7.1482486 C2.7516651,7.31951406 2.58039963,7.42227333 2.34062798,7.45652643 L2.2378687,7.45652643 C2.06660324,7.45652643 1.86108469,7.38802024 1.72407232,7.28526096 L0.285442436,6.12065584 C-0.0570884941,5.84663111 -0.091341578,5.33283471 0.182683169,4.99030378 C0.456707915,4.64777285 0.970504295,4.61351977 1.31303521,4.88754452 L2.10085634,5.53835326 L3.74500477,3.38040845 C3.88201714,3.20914298 4.0875357,3.10638371 4.29305423,3.07213062 C4.49857278,3.03787752 4.73834443,3.10638371 4.9096099,3.24339608 L6.55375833,4.61351977 L8.67745006,1.97603166 L8.09514748,1.49648838 C7.68411037,1.15395745 7.78686965,0.777173435 8.30066603,0.674414153 L11.3491913,0.023605408 C11.8972407,-0.0791538739 12.0342531,0.160617774 11.7259753,0.60590797 L7.30732636,6.2234151 Z" id="形状"></path>
                                </g>
                            </g>
                        </g>
                    </g>
                </g>
            </g>
        </g>
    </g>
</svg>