<?xml version="1.0" encoding="UTF-8"?>
<svg width="42px" height="42px" viewBox="0 0 42 42" version="1.1" xmlns="http://www.w3.org/2000/svg" xmlns:xlink="http://www.w3.org/1999/xlink">
    <title>编组</title>
    <g id="首页" stroke="none" stroke-width="1" fill="none" fill-rule="evenodd">
        <g transform="translate(-350.000000, -1521.000000)" id="编组-32">
            <g transform="translate(320.000000, 166.000000)">
                <g id="编组-31" transform="translate(0.000000, 291.000000)">
                    <g id="FIL-行情" transform="translate(0.000000, 974.000000)">
                        <g id="编组-38" transform="translate(0.000000, 72.000000)">
                            <g id="编组" transform="translate(30.000000, 18.000000)">
                                <circle id="椭圆形" fill="#004DFF" cx="21" cy="21" r="21"></circle>
                                <g id="FIL-(2)" transform="translate(13.137258, 9.624999)" fill="#FFFFFF" fill-rule="nonzero">
                                    <path d="M15.4758491,0.636578456 C16.3469385,1.18747853 16.7130045,1.77913684 16.5552795,2.36074777 C16.445327,2.76738254 16.0481709,3.09989414 15.7130053,3.1398941 L15.658029,3.14520216 C15.3535743,3.17269029 14.9969869,3.10141072 14.6576506,2.85136352 C14.4288356,2.68264327 14.2362291,2.44719319 14.0881724,2.14292803 L14.0275089,2.00833098 C13.8258029,1.52586689 13.5873197,1.37818929 13.286846,1.41307077 C13.0595476,1.43942147 12.7844767,1.59221756 12.7067516,1.68472932 L12.4629604,1.95070068 C12.2347141,2.20207489 12.094809,2.38179041 11.9516811,2.62254853 L11.8752831,2.75695601 L11.7615391,2.98178995 L11.6857097,3.14823533 L11.6477951,3.23676607 L11.5719658,3.42501239 L11.4953781,3.62842456 L11.4184114,3.84832959 L11.3406863,4.08472753 L11.262203,4.33894534 L11.1825822,4.61193092 L11.1016343,4.90387383 L11.0191699,5.21591151 L10.935189,5.54880227 L10.8059,6.08889664 L10.6718716,6.67998623 L10.5327248,7.32510425 L10.3772747,8.07619372 L14.6836222,8.70045865 L14.3988831,10.7209311 L10.017275,10.0752444 L9.72533206,11.7078498 L14.1412529,12.3508825 L13.8565138,14.3711653 L9.32154089,13.7036777 L9.20059311,14.2147673 L9.09064061,14.6615916 L8.91888717,15.3300272 L8.80116214,15.7698372 L8.68173095,16.2013061 L8.56116233,16.621211 L8.44040413,17.0263292 L8.32002506,17.4136275 L8.20078344,17.779504 L8.08362714,18.1214943 C7.94808222,18.5048115 7.81822449,18.8322046 7.6987933,19.0807352 L7.64836679,19.182157 L7.60514408,19.2710668 L7.5410683,19.3903085 L7.45955176,19.5334363 L7.36324853,19.6943841 L7.25519174,19.8668958 L7.13879372,20.0443364 C6.76078451,20.6062317 6.32533461,21.1298332 5.83604589,21.5683163 C4.40855882,22.8479362 2.78751736,23.1755189 1.10903521,22.1125813 C0.236239654,21.5607334 -0.128120258,20.9694542 0.0398417032,20.3916347 C0.15851459,19.983673 0.575196747,19.6562798 0.918703596,19.6394078 L0.943537709,19.6377016 C1.2178503,19.6130571 1.53386902,19.6684125 1.84173608,19.8619669 L1.94410568,19.9317299 C2.1727311,20.1002606 2.36552717,20.3357106 2.51358393,20.6397862 L2.57424738,20.7743833 C2.77633254,21.2570369 3.01500535,21.4047145 3.31547906,21.369833 C3.54239831,21.3436719 3.81709005,21.1908758 3.88969663,21.1040512 L3.99396195,20.9798807 L4.04552589,20.9144779 L4.14789549,20.7770373 L4.24874849,20.6297388 C4.28230296,20.5791227 4.31566788,20.5266109 4.3488432,20.472393 L4.44780048,20.3046206 L4.54599945,20.1256634 L4.66770553,19.8852844 L4.78827416,19.6259481 L4.83642578,19.5165643 L4.93234988,19.2877493 L5.07566731,18.9186501 L5.17121227,18.6545744 L5.26656765,18.3753329 L5.41007465,17.9273712 L5.50599873,17.6083193 L5.60249155,17.2725849 L5.69917394,16.9194099 L5.79699378,16.5482253 L5.89538233,16.1588417 L5.99452917,15.7503112 L6.09481346,15.3224442 L6.1960456,14.874672 L6.35054787,14.1643408 L6.45519234,13.664436 L6.53026336,13.2959054 L2.22277845,12.6541998 L2.50732801,10.6367605 L6.88571334,11.2799828 L7.07907812,10.1292728 L7.16457569,9.64737737 L2.76780173,9.00491342 L3.05254087,6.98614716 L7.56969387,7.65192864 L7.6121583,7.4760046 C7.96438553,6.02652701 8.39661269,4.67866073 8.85101992,3.73913537 L8.93651749,3.56795066 L8.95547481,3.52776112 L9.043816,3.35979916 L9.12533251,3.21667131 L9.22163575,3.05553399 L9.32969254,2.88321183 L9.44609056,2.7057712 C9.82391019,2.14368631 10.2595497,1.61989524 10.7488384,1.18122259 C12.1763255,-0.0987764594 13.7973669,-0.426738282 15.4760386,0.63638888 L15.4758491,0.636578456 Z" id="路径"></path>
                                </g>
                            </g>
                        </g>
                    </g>
                </g>
            </g>
        </g>
    </g>
</svg>