<?xml version="1.0" encoding="UTF-8"?>
<svg width="16px" height="16px" viewBox="0 0 16 16" version="1.1" xmlns="http://www.w3.org/2000/svg" xmlns:xlink="http://www.w3.org/1999/xlink">
    <title>上升</title>
    <g id="首页" stroke="none" stroke-width="1" fill="none" fill-rule="evenodd">
        <g transform="translate(-1394.000000, -1534.000000)" fill-rule="nonzero" id="编组-32">
            <g transform="translate(320.000000, 166.000000)">
                <g id="编组-31" transform="translate(0.000000, 291.000000)">
                    <g id="FIL-行情" transform="translate(0.000000, 974.000000)">
                        <g id="编组-38" transform="translate(0.000000, 72.000000)">
                            <g id="上升" transform="translate(1074.000000, 31.000000)">
                                <rect id="矩形" fill="#000000" opacity="0" x="0" y="0" width="16" height="16"></rect>
                                <path d="M13.6420315,4.35000985 L8.8078532,0.281493304 C8.35746392,-0.0938311012 7.62182808,-0.0938311012 7.1714388,0.281493304 L2.33726046,4.35000985 C1.61663761,4.96554188 2.1270788,6.01645021 3.14796118,6.01645021 L4.99455725,6.01645021 C4.99455725,6.01645021 4.99455725,6.03146318 4.99455725,6.03146318 L4.99455725,13.5379513 C4.99455725,14.363665 5.67014118,15.0392489 6.49585487,15.0392489 L9.49845011,15.0392489 C10.3241638,15.0392489 10.9997477,14.363665 10.9997477,13.5379513 L10.9997477,6.03146318 C10.9997477,6.03146318 10.9997477,6.01645021 10.9997477,6.01645021 L12.8313308,6.01645021 C13.8522132,6.01645021 14.3626544,4.96554188 13.6420315,4.35000985 Z" id="路径" fill="#26A17B"></path>
                            </g>
                        </g>
                    </g>
                </g>
            </g>
        </g>
    </g>
</svg>