<?xml version="1.0" encoding="UTF-8" ?>
<!DOCTYPE svg PUBLIC "-//W3C//DTD SVG 1.1//EN" "http://www.w3.org/Graphics/SVG/1.1/DTD/svg11.dtd">
<svg width="164pt" height="60pt" viewBox="0 0 164 60" version="1.1" xmlns="http://www.w3.org/2000/svg">
<g id="#ffffffff">
<path fill="#ffffff" opacity="1.00" d=" M 29.33 0.00 L 30.65 0.00 C 46.39 0.02 60.37 14.24 59.98 29.99 C 60.37 45.73 46.43 59.94 30.72 60.00 L 29.36 60.00 C 13.86 59.98 0.06 46.21 0.00 30.71 L 0.00 29.25 C 0.09 13.78 13.85 0.04 29.33 0.00 M 13.26 14.96 C 14.24 16.97 15.23 18.98 16.24 20.98 C 20.31 21.07 24.38 21.03 28.46 21.02 C 28.47 19.00 28.47 16.98 28.46 14.96 C 23.39 14.93 18.33 14.93 13.26 14.96 M 31.54 14.95 C 31.53 16.97 31.53 19.00 31.54 21.02 C 33.94 21.09 36.40 20.79 38.78 21.28 C 41.23 22.11 41.25 25.95 38.85 26.89 C 36.45 27.36 33.97 27.09 31.54 27.13 C 31.53 29.17 31.53 31.20 31.54 33.23 C 33.88 33.26 36.25 33.07 38.58 33.42 C 41.14 34.10 41.37 38.06 38.92 39.04 C 35.49 39.71 31.94 39.18 28.47 39.37 C 28.47 41.39 28.48 43.41 28.49 45.44 C 33.60 45.04 39.78 46.85 43.91 42.90 C 47.53 39.67 47.52 33.91 44.63 30.20 C 47.59 26.40 47.50 20.46 43.69 17.27 C 40.43 14.16 35.62 15.04 31.54 14.95 M 16.27 27.15 C 16.25 33.21 16.32 39.26 16.22 45.32 C 18.26 45.44 20.31 45.49 22.35 45.43 C 22.38 41.37 22.35 37.31 22.37 33.26 C 24.40 33.24 26.43 33.23 28.46 33.21 C 28.47 31.19 28.47 29.16 28.45 27.13 C 24.39 27.13 20.33 27.12 16.27 27.15 Z" />
<path fill="#ffffff" opacity="1.00" d=" M 155.35 43.99 C 155.37 34.26 155.35 24.53 155.37 14.80 C 157.08 14.80 158.80 14.80 160.51 14.80 C 160.53 24.53 160.51 34.26 160.53 43.99 C 158.80 43.99 157.08 43.99 155.35 43.99 Z" />
<path fill="#ffffff" opacity="1.00" d=" M 82.60 16.00 C 88.17 16.00 93.75 16.00 99.32 16.00 C 99.32 17.76 99.31 19.52 99.32 21.28 C 95.58 21.28 91.85 21.28 88.12 21.28 C 88.12 23.49 88.12 25.71 88.12 27.92 C 91.74 27.92 95.37 27.92 99.00 27.92 C 99.00 29.68 99.00 31.44 99.00 33.20 C 95.37 33.20 91.75 33.20 88.12 33.20 C 88.12 36.80 88.12 40.40 88.12 44.00 C 86.28 44.00 84.44 44.00 82.60 44.00 C 82.60 34.67 82.60 25.33 82.60 16.00 Z" />
<path fill="#ffffff" opacity="1.00" d=" M 101.76 16.00 C 107.63 16.00 113.50 16.00 119.36 16.00 C 120.63 20.78 116.60 23.86 114.14 27.31 C 119.19 28.69 122.16 34.76 119.56 39.45 C 115.92 46.51 103.84 46.11 100.95 38.58 C 102.50 37.72 104.05 36.84 105.59 35.96 C 107.00 39.97 113.92 40.46 114.96 36.03 C 115.55 32.65 112.01 31.27 109.27 31.47 C 108.58 30.43 107.88 29.39 107.20 28.35 C 109.04 25.96 110.88 23.56 112.71 21.16 C 109.06 21.15 105.41 21.16 101.77 21.15 C 101.76 19.44 101.76 17.72 101.76 16.00 Z" />
<path fill="#ffffff" opacity="1.00" d=" M 124.60 16.00 C 130.17 16.00 135.75 16.00 141.32 16.00 C 141.32 17.76 141.31 19.52 141.32 21.28 C 137.58 21.28 133.85 21.28 130.12 21.28 C 130.12 23.49 130.12 25.71 130.12 27.92 C 133.74 27.92 137.37 27.92 141.00 27.92 C 141.00 29.68 141.00 31.44 141.00 33.20 C 137.37 33.20 133.75 33.20 130.12 33.20 C 130.12 36.80 130.12 40.40 130.12 44.00 C 128.28 44.00 126.44 44.00 124.60 44.00 C 124.60 34.67 124.60 25.33 124.60 16.00 Z" />
<path fill="#ffffff" opacity="1.00" d=" M 145.56 16.38 C 147.14 14.24 150.91 15.44 151.06 18.06 C 151.56 20.58 148.19 22.64 146.19 21.02 C 144.62 20.10 144.29 17.69 145.56 16.38 Z" />
<path fill="#ffffff" opacity="1.00" d=" M 145.36 24.00 C 147.08 24.00 148.80 24.01 150.53 24.01 C 150.52 30.67 150.52 37.33 150.53 43.99 C 148.80 43.99 147.08 43.99 145.36 43.99 C 145.36 37.33 145.36 30.67 145.36 24.00 Z" />
</g>
<g id="#b5dc79ff">
<path fill="#b5dc79" opacity="1.00" d=" M 13.26 14.96 C 18.33 14.93 23.39 14.93 28.46 14.96 C 28.47 16.98 28.47 19.00 28.46 21.02 C 24.38 21.03 20.31 21.07 16.24 20.98 C 15.23 18.98 14.24 16.97 13.26 14.96 Z" />
<path fill="#b5dc79" opacity="1.00" d=" M 16.27 27.15 C 20.33 27.12 24.39 27.13 28.45 27.13 C 28.47 29.16 28.47 31.19 28.46 33.21 C 26.43 33.23 24.40 33.24 22.37 33.26 C 22.35 37.31 22.38 41.37 22.35 45.43 C 20.31 45.49 18.26 45.44 16.22 45.32 C 16.32 39.26 16.25 33.21 16.27 27.15 Z" />
</g>
<g id="#64727cff">
<path fill="#64727c" opacity="1.00" d=" M 31.54 14.95 C 35.62 15.04 40.43 14.16 43.69 17.27 C 47.50 20.46 47.59 26.40 44.63 30.20 C 47.52 33.91 47.53 39.67 43.91 42.90 C 39.78 46.85 33.60 45.04 28.49 45.44 C 28.48 43.41 28.47 41.39 28.47 39.37 C 31.94 39.18 35.49 39.71 38.92 39.04 C 41.37 38.06 41.14 34.10 38.58 33.42 C 36.25 33.07 33.88 33.26 31.54 33.23 C 31.53 31.20 31.53 29.17 31.54 27.13 C 33.97 27.09 36.45 27.36 38.85 26.89 C 41.25 25.95 41.23 22.11 38.78 21.28 C 36.40 20.79 33.94 21.09 31.54 21.02 C 31.53 19.00 31.53 16.97 31.54 14.95 Z" />
</g>
</svg>
